<svg preserveAspectRatio="none" width="100%" height="100%" overflow="visible" style="display: block;" viewBox="0 0 65.8549 67.5032" fill="none" xmlns="http://www.w3.org/2000/svg">
<path id="Subtract" d="M47.2842 0.0273107C53.7256 -0.236117 61.1317 1.32826 63.6416 8.13473C64.529 10.5418 64.7526 13.2922 64.2178 15.8105C63.5838 18.5772 61.2797 21.1453 58.6035 22.1152C60.165 22.6964 61.543 23.4842 62.6826 24.7129C64.7648 26.959 65.9256 29.9083 65.8516 32.9609C65.6125 42.8833 57.8712 45.7997 49.3496 45.9111C47.2866 45.9245 45.2232 45.9258 43.1602 45.914C42.0282 45.9092 40.4632 45.8415 39.3818 46.0215C38.3676 46.2627 37.0512 46.9935 36.3369 47.7363C32.0137 52.2334 36.7838 59.8689 32.001 64.3007C29.0413 67.0429 24.6635 67.5631 20.8115 67.498C12.8404 67.2166 3.82229 64.0916 0.166016 56.0332C-0.000258498 55.6667 0.0655968 52.9963 0.0664062 52.4697L0.0732422 46.5556L0.0722656 22.2646V14.6035C0.0720646 13.189 0.122637 11.3357 0 9.96676C2.18534 13.6663 3.91705 15.8587 7.76074 18.1318C13.1983 21.3476 21.0815 22.3945 27.1992 20.8965C28.9237 20.4741 30.5526 19.6084 31.8516 18.4238C36.3233 14.3458 32.7967 7.75219 35.3125 3.05075C36.1126 1.55509 37.8608 0.473333 39.5254 0.046842C42.0679 -0.0803106 44.7486 0.130972 47.2842 0.0273107ZM46.3018 26.0791C44.1673 26.183 41.6723 25.9144 39.5732 26.1113C37.8642 26.7606 35.8198 28.4545 35.082 30.1504C34.4421 31.6204 34.5098 33.7426 34.5791 35.3408C34.7813 40.0639 33.946 44.3833 29.0049 46.3154C25.034 47.8683 20.1937 47.5407 16.0342 47.0058C15.4556 46.931 14.2078 46.7721 13.667 46.6445L13.6484 54.3603C13.6484 55.5582 13.6996 57.2071 13.626 58.3545C18.5174 59.1548 24.4282 59.8809 29.1484 57.956C31.5052 56.8814 32.7438 55.7775 33.7939 53.3047C35.8041 48.5693 32.4292 42.7976 37.126 39.2851C39.4106 37.5769 39.3696 37.7879 42.0781 37.7988L46.4062 37.8047C49.7336 37.8056 55.4609 37.8522 56.9463 34.0146C58.2756 30.5814 55.4449 27.839 52.374 26.7275C51.612 26.4469 50.8191 26.2581 50.0127 26.164C48.9438 26.0447 47.3866 26.0263 46.3018 26.0791ZM44.9277 7.92868C43.2632 7.93144 41.2123 7.8669 39.6025 7.95797C37.872 8.59006 35.9351 10.214 35.1328 11.9004C34.3403 13.5645 34.5323 15.9608 34.5898 17.8173C34.7367 22.5249 33.55 26.5218 28.7344 28.2822C24.452 29.8476 18.0992 29.3233 13.6621 28.5L13.6494 35.1308C13.6495 36.3321 13.6881 37.7888 13.623 38.9756C18.493 39.7109 23.4405 40.3962 28.2412 38.9052C30.6915 38.0244 32.2965 36.9572 33.5088 34.5595C35.4707 30.6797 33.7001 26.4166 34.999 22.5302C35.5422 20.9063 37.7441 19.247 39.2578 18.5332C39.715 18.3195 41.4404 18.3891 42.0244 18.3916L46.6279 18.4062C49.5196 18.4068 53.8724 18.6019 55.418 15.5859C55.9518 14.5284 56.0453 13.3028 55.6777 12.1767C55.1804 10.6466 54.1845 9.49652 52.75 8.77829C51.9928 8.4032 51.1794 8.15386 50.3418 8.04098C48.9416 7.84531 46.4364 7.92618 44.9277 7.92868Z" fill="var(--fill-0, white)"/>
</svg>
