<svg preserveAspectRatio="none" width="100%" height="100%" overflow="visible" style="display: block;" viewBox="0 0 34.9998 35.8757" fill="none" xmlns="http://www.w3.org/2000/svg">
<path id="Subtract" d="M25.1299 0.0145184C28.5533 -0.125497 32.4902 0.705817 33.8242 4.32311C34.2959 5.60241 34.4151 7.06471 34.1309 8.40319C33.794 9.87363 32.5688 11.2383 31.1465 11.7538C31.9764 12.0626 32.7088 12.4816 33.3145 13.1346C34.421 14.3285 35.0374 15.896 34.998 17.5184C34.8709 22.7919 30.7566 24.3421 26.2275 24.4012C25.1312 24.4084 24.0348 24.4085 22.9385 24.4022C22.337 24.3996 21.5054 24.3633 20.9307 24.4589C20.3916 24.5871 19.6921 24.9762 19.3125 25.371C17.0147 27.761 19.5495 31.8182 17.0078 34.1737C15.4348 35.6313 13.1079 35.9075 11.0605 35.8729C6.82414 35.7233 2.03103 34.063 0.0878906 29.7801C-0.000331228 29.5845 0.0347194 28.1666 0.0351562 27.8866L0.0390625 24.743V7.76159C0.0389536 7.00978 0.065201 6.02436 0 5.29674C1.16149 7.26306 2.08213 8.42847 4.125 9.63659C7.01493 11.3456 11.2047 11.9025 14.4561 11.1063C15.3725 10.8818 16.2384 10.4214 16.9287 9.79186C19.3051 7.62444 17.4304 4.1196 18.7676 1.62096C19.1929 0.826174 20.1222 0.251902 21.0068 0.0252606C22.358 -0.0423111 23.7824 0.0695732 25.1299 0.0145184ZM24.6084 13.8612C23.474 13.9164 22.1478 13.7731 21.0322 13.8778C20.1239 14.2229 19.0376 15.123 18.6455 16.0243C18.3053 16.8056 18.3411 17.9336 18.3779 18.7831C18.4854 21.2933 18.0412 23.5883 15.415 24.6151C13.3046 25.4404 10.7322 25.2666 8.52148 24.9823C8.21384 24.9425 7.55097 24.8587 7.26367 24.7909L7.25391 28.8915C7.25388 29.5282 7.28136 30.4048 7.24219 31.0145C9.8417 31.4399 12.9826 31.8255 15.4912 30.8026C16.7439 30.2314 17.4028 29.6443 17.9609 28.3299C19.029 25.8133 17.2353 22.7455 19.7314 20.8788C20.9455 19.971 20.9241 20.0829 22.3633 20.0887L24.6641 20.0926C26.4325 20.0931 29.4762 20.1176 30.2656 18.078C30.9721 16.2533 29.4671 14.7956 27.835 14.2049C27.4302 14.056 27.0093 13.9552 26.5811 13.9051C26.013 13.8417 25.185 13.8331 24.6084 13.8612ZM23.8779 4.21374C22.9933 4.2152 21.9034 4.18096 21.0479 4.22936C20.1282 4.56527 19.0983 5.4279 18.6719 6.32409C18.2507 7.20858 18.3532 8.48284 18.3838 9.4696C18.4618 11.9715 17.8309 14.0955 15.2715 15.0311C12.9955 15.8631 9.61894 15.5849 7.26074 15.1473L7.25391 18.6708C7.25394 19.3093 7.27481 20.0839 7.24023 20.7147C9.82852 21.1056 12.4583 21.4691 15.0098 20.6766C16.3119 20.2085 17.1653 19.6413 17.8096 18.3671C18.852 16.3052 17.9114 14.0398 18.6016 11.9745C18.8902 11.1114 20.0598 10.2289 20.8643 9.84948C21.1073 9.7359 22.0246 9.773 22.335 9.77428L24.7822 9.7821C26.3191 9.78244 28.6318 9.88586 29.4531 8.28307C29.7368 7.72106 29.7862 7.06999 29.5908 6.47155C29.3265 5.65825 28.7977 5.04663 28.0352 4.66491C27.6328 4.46561 27.2009 4.3333 26.7559 4.27331C26.0117 4.16927 24.6799 4.21241 23.8779 4.21374Z" fill="var(--fill-0, black)"/>
</svg>
